<svg width="350" height="266" fill="none" xmlns="http://www.w3.org/2000/svg">
  <path fill-rule="evenodd" clip-rule="evenodd" d="m0 0 216.667 266C290.305 266 350 206.454 350 133 350 59.5461 290.305 0 216.667 0H0Zm231.629 231.641c48.131-7.203 85.038-48.623 85.038-98.641 0-55.0904-44.772-99.75-100-99.75h-54.862C185.557 59.7215 200 94.6783 200 133c0 17.331-2.96 33.991-8.405 49.492l40.034 49.149Zm-66.243-81.326c.844-5.646 1.281-11.428 1.281-17.315 0-42.3327-22.66-79.3861-56.541-99.75H70.0323l95.3537 117.065Z" fill="#fff"/>
</svg>